<svg aria-hidden="true" style="position: absolute; width: 0; height: 0; overflow: hidden;" version="1.1" xmlns="http://www.w3.org/2000/svg" xmlns:xlink="http://www.w3.org/1999/xlink">
<defs>
<symbol id="icon-opencart" viewBox="0 0 43 28">
<title>opencart</title>
<path d="M23.812 24.391c0 1.422-1.141 2.562-2.562 2.562s-2.578-1.141-2.578-2.562 1.156-2.578 2.578-2.578 2.562 1.156 2.562 2.578zM12.109 24.391c0 1.422-1.156 2.562-2.578 2.562s-2.562-1.141-2.562-2.562 1.141-2.578 2.562-2.578 2.578 1.156 2.578 2.578zM0 1.047c4.609 4.859 8.937 5.578 25.937 5.578s9.531 3.781-0.969 13.156c3.328-5.781 14.766-10.906-3.984-10.625-17.984 0.266-19.047-5.203-20.984-8.109z"></path>
</symbol>
<symbol id="icon-menu" viewBox="0 0 24 24">
<title>menu</title>
<path d="M3 6h18v2.016h-18v-2.016zM3 12.984v-1.969h18v1.969h-18zM3 18v-2.016h18v2.016h-18z"></path>
</symbol>
<symbol id="icon-arrow_drop_down" viewBox="0 0 24 24">
<title>arrow_drop_down</title>
<path d="M6.984 9.984h10.031l-5.016 5.016z"></path>
</symbol>
<symbol id="icon-close" viewBox="0 0 20 20">
<title>close</title>
<path d="M10 8.586l-7.071-7.071-1.414 1.414 7.071 7.071-7.071 7.071 1.414 1.414 7.071-7.071 7.071 7.071 1.414-1.414-7.071-7.071 7.071-7.071-1.414-1.414-7.071 7.071z"></path>
</symbol>
</defs>
</svg>
